<?xml version="1.0" encoding="UTF-8"?>
<svg xmlns="http://www.w3.org/2000/svg" width="392.93" height="135.25" viewBox="0 0 392.93 135.25">
  <title>logo</title>
  <path d="M164.24,45.18H175.1a19.06,19.06,0,0,1,11.79,3.63,12.08,12.08,0,0,1,4.83,10.26,12.08,12.08,0,0,1-4.83,10.26,19.46,19.46,0,0,1-12,3.63h-6.3V83.7q0,2.64,1.8,3.48a5.69,5.69,0,0,1-4.62,2.34q-4.92,0-4.92-6V51.12A3.49,3.49,0,0,0,159,47.64,6.43,6.43,0,0,1,164.24,45.18Zm9.42,4.92h-5.1v18h5.1a9.12,9.12,0,0,0,6.84-2.46,9,9,0,0,0,2.4-6.54,9,9,0,0,0-2.4-6.54A9.12,9.12,0,0,0,173.66,50.1Z" transform="translate(-0.27 -0.11)" fill="#463933"></path>
  <path d="M221.6,67.62V82.14q0,3.54,3.12,4.32a6.33,6.33,0,0,1-5.64,3.06q-4.26,0-5-4.26a11.61,11.61,0,0,1-9.3,4.26,9.73,9.73,0,0,1-6.42-2,7,7,0,0,1-2.46-5.7q0-4.5,4.68-7.26t13.32-2.88V66.72q0-5.22-4.14-5.22a4.27,4.27,0,0,0-2.94,1,3,3,0,0,0-1.08,2.37,3.33,3.33,0,0,0,.9,2.37,6.13,6.13,0,0,1-4.32,1.74,5.2,5.2,0,0,1-3.72-1.2,4.11,4.11,0,0,1-1.26-3.12q0-3.12,3.78-5.22a18.19,18.19,0,0,1,9-2.1,13,13,0,0,1,8.37,2.55Q221.6,62.4,221.6,67.62ZM204.26,80.94q0,3.42,3.9,3.42a7.23,7.23,0,0,0,5.7-3V75q-5,.3-7.32,1.92A4.8,4.8,0,0,0,204.26,80.94Z" transform="translate(-0.27 -0.11)" fill="#463933"></path>
  <path d="M268.82,63.3a15.6,15.6,0,0,0,.3-2.94,3.74,3.74,0,0,0-.6-2.22,8.68,8.68,0,0,1,3.93-.84,3.43,3.43,0,0,1,3.27,2,5.09,5.09,0,0,1,.54,2.31,9.68,9.68,0,0,1-.36,2.55l-5.4,19.08A11.38,11.38,0,0,1,268,88.11a5.94,5.94,0,0,1-4.32,1.41,6,6,0,0,1-4.41-1.5,9.44,9.44,0,0,1-2.25-4.8l-3.84-15.9-3.9,15.9a10,10,0,0,1-2.46,4.86,6.54,6.54,0,0,1-4.59,1.44,6.61,6.61,0,0,1-4.56-1.38,9.87,9.87,0,0,1-2.43-4.92l-5-18.78q-.78-3.24-2.7-4a5.33,5.33,0,0,1,5.16-3.18q4.32,0,5.4,5.76l4.2,20.52,5.16-21a7.44,7.44,0,0,1,2.16-4.11,6.21,6.21,0,0,1,4-1.17,6.47,6.47,0,0,1,4.08,1.17,6.73,6.73,0,0,1,2.1,4.11l4.62,20.94Z" transform="translate(-0.27 -0.11)" fill="#463933"></path>
  <path d="M282.56,98.52V63.12q0-2.64-1.8-3.54a5.47,5.47,0,0,1,4.56-2.28q4.26,0,4.86,4.26a10.31,10.31,0,0,1,8.64-4.26,11.63,11.63,0,0,1,9.09,4.2q3.69,4.2,3.69,11.82t-4.23,11.91a13.31,13.31,0,0,1-9.75,4.29,11.13,11.13,0,0,1-7.32-2.64V98.7a3.51,3.51,0,0,0,1.8,3.48,5.64,5.64,0,0,1-4.62,2.4Q282.56,104.58,282.56,98.52Zm14.1-13.92q2.88,0,5-3.09a14,14,0,0,0,2.13-8.1q0-5-2.1-7.8a6.17,6.17,0,0,0-5-2.79q-4.2,0-6.36,4.32V81.3A7.49,7.49,0,0,0,296.66,84.6Z" transform="translate(-0.27 -0.11)" fill="#463933"></path>
  <path d="M342.08,67.62V82.14q0,3.54,3.12,4.32a6.33,6.33,0,0,1-5.64,3.06q-4.26,0-5-4.26a11.61,11.61,0,0,1-9.3,4.26,9.73,9.73,0,0,1-6.42-2,7,7,0,0,1-2.46-5.7q0-4.5,4.68-7.26t13.32-2.88V66.72q0-5.22-4.14-5.22a4.27,4.27,0,0,0-2.94,1,3,3,0,0,0-1.08,2.37,3.33,3.33,0,0,0,.9,2.37,6.13,6.13,0,0,1-4.32,1.74,5.2,5.2,0,0,1-3.72-1.2,4.11,4.11,0,0,1-1.26-3.12q0-3.12,3.78-5.22a18.19,18.19,0,0,1,9-2.1,13,13,0,0,1,8.37,2.55Q342.08,62.4,342.08,67.62ZM324.74,80.94q0,3.42,3.9,3.42a7.23,7.23,0,0,0,5.7-3V75q-5,.3-7.32,1.92A4.8,4.8,0,0,0,324.74,80.94Z" transform="translate(-0.27 -0.11)" fill="#463933"></path>
  <path d="M359.54,48.42V83.7a3.51,3.51,0,0,0,1.8,3.48,5.69,5.69,0,0,1-4.62,2.34q-4.92,0-4.92-6V48.24A3.73,3.73,0,0,0,350,44.7a5.47,5.47,0,0,1,4.56-2.28Q359.54,42.42,359.54,48.42Z" transform="translate(-0.27 -0.11)" fill="#463933"></path>
  <path d="M392.12,63.84A3.4,3.4,0,0,1,391,66.51a4.21,4.21,0,0,1-2.91,1,5.4,5.4,0,0,1-3.36-1.2,5.41,5.41,0,0,0,.27-1.89,2.6,2.6,0,0,0-1.14-1.89,4.94,4.94,0,0,0-3.18-.9,5.47,5.47,0,0,0-3.3.9,2.8,2.8,0,0,0-1.23,2.37,3.54,3.54,0,0,0,1.77,2.76A22.27,22.27,0,0,0,382.19,70q2.49,1.08,5,2.31a13.91,13.91,0,0,1,4.26,3.21A6.49,6.49,0,0,1,393.2,80a8.11,8.11,0,0,1-3.84,6.81A15.79,15.79,0,0,1,380,89.52a18.74,18.74,0,0,1-9.21-2Q367,85.32,367,82a3.86,3.86,0,0,1,1.32-3,5.19,5.19,0,0,1,3.57-1.17,4,4,0,0,1,3.45,1.62,3.29,3.29,0,0,0-1,2.43,2.71,2.71,0,0,0,1.41,2.37,7.35,7.35,0,0,0,4,.9,7.09,7.09,0,0,0,4.08-1,3.11,3.11,0,0,0,1.53-2.64,3.62,3.62,0,0,0-1.74-2.88,21.38,21.38,0,0,0-4.23-2.37q-2.49-1.08-5-2.31a13.9,13.9,0,0,1-4.26-3.15,6.27,6.27,0,0,1-1.74-4.32A7.88,7.88,0,0,1,372,60a13.69,13.69,0,0,1,8.49-2.67,17.19,17.19,0,0,1,8.31,1.83Q392.12,61,392.12,63.84Z" transform="translate(-0.27 -0.11)" fill="#463933"></path>
  <path d="M.27,74.38a2.35,2.35,0,0,0,.14-.91,40.58,40.58,0,0,1,1.45-8.61A39.48,39.48,0,0,1,9.4,50.32,36.5,36.5,0,0,1,22.53,40.15a35.14,35.14,0,0,1,8.81-2.71A39,39,0,0,1,40.43,37a12.45,12.45,0,0,1,1.81.23h-.63a29.71,29.71,0,0,0-12,2.61,35.29,35.29,0,0,0-11.84,8.57A35.89,35.89,0,0,0,9.1,64.85,36.43,36.43,0,0,0,8.32,70c-.09,1.23-.15,2.46-.13,3.7a36.94,36.94,0,0,0,1.57,9.9,51.86,51.86,0,0,0,9.6,17.91,40.19,40.19,0,0,0,8.07,7.61,23.23,23.23,0,0,0,5,2.8,14.26,14.26,0,0,0,2.71.72c.11,0,.22.05.31,0s.27.13.42.14l1.22.08c1,0,1.93,0,2.89-.1.33,0,.67,0,1-.08,1-.13,2.1-.25,3.14-.39s2.07-.27,3.1-.44A22.4,22.4,0,0,1,50,111.5a30.67,30.67,0,0,1,4.79.21c1.4.16,2.79.39,4.17.64a13.07,13.07,0,0,0,1.52.27c.09,0,.18.07.27.09l2,.44c3,.7,6.08,1.48,9.15,2.12.94.2,1.88.4,2.84.53a4.37,4.37,0,0,0,.63.11,34.89,34.89,0,0,0,4.56.47,23.53,23.53,0,0,0,5.74-.41c.42-.09.43-.08.54.33-.15.84-.32,1.68-.52,2.51-.12,0-.12.15-.11.26h0c-.16,0-.17.2-.23.32a5.51,5.51,0,0,1-2.4,2.4,10.13,10.13,0,0,1-4.11,1c-1,.07-1.95,0-2.92,0s-1.89-.17-2.84-.19c-.51-.12-1-.14-1.56-.21-1.81-.23-3.6-.52-5.39-.86q-4-.77-8-1.81a.31.31,0,0,0-.28,0c0,.11.09.19.16.27a8.79,8.79,0,0,0,1.2,1.16,15.07,15.07,0,0,0,3.23,1.88,36.78,36.78,0,0,0,7.18,2.2,75.16,75.16,0,0,0,8.45,1.25c2,.18,4,.29,5.94.36,1.76.06,3.53,0,5.29,0,1.37-.08,2.73-.15,4.09-.24.66,0,1.32-.11,2-.19l2.76-.39c1.63-.39,1.66-.4,3.36-.78l.55-.15a11,11,0,0,1,3.07-.51,1.89,1.89,0,0,0,.4-.08c0,.12.12.13.22.13a2.86,2.86,0,0,1,.64.11,3.7,3.7,0,0,1,2.72,2.8.26.26,0,0,1-.16.36l-.18.1a53.37,53.37,0,0,1-12.53,5,66.12,66.12,0,0,1-7.25,1.5c-1.5.22-3,.4-4.52.53-1.08.09-2.16.18-3.25.19-.1,0-.22,0-.31.07H75.6c-1-.08-2-.08-3-.14-2-.13-4-.33-6-.58s-4.19-.61-6.27-1a97.46,97.46,0,0,1-12.56-3.4,91.24,91.24,0,0,1-15.86-7.18,72.16,72.16,0,0,1-17.19-13.73,65.11,65.11,0,0,1-6.14-7.81,51.34,51.34,0,0,1-4.91-9.08,43.64,43.64,0,0,1-2.57-8.65,37.47,37.47,0,0,1-.64-5.37,12.21,12.21,0,0,0-.15-1.34Z" transform="translate(-0.27 -0.11)" fill="#ec9343"></path>
  <path d="M105.62,13.54c-.12-.09-.24-.18-.37-.26A32.16,32.16,0,0,0,93.43,8.85,30.63,30.63,0,0,0,86,8.53a32.72,32.72,0,0,0-20.37,8.91,25.93,25.93,0,0,0-6.73,10.17,22.68,22.68,0,0,0-1.33,9.16A20.9,20.9,0,0,0,58,40.12a2.43,2.43,0,0,1,0,.3c-.14,0-.2-.09-.28-.15a29.66,29.66,0,0,0-13-6A33.82,33.82,0,0,0,37,33.56a40.09,40.09,0,0,0-24.21,8.6,32.72,32.72,0,0,0-6.35,6.63.8.8,0,0,1-.24.28c0-.08,0-.15,0-.23a26,26,0,0,1,6.47-11.25,33.16,33.16,0,0,1,11-7.47,41.1,41.1,0,0,1,9.84-2.79A41.64,41.64,0,0,1,42,26.87a38,38,0,0,1,8.47,1.33l.49.13c.15-.59.28-1.15.44-1.71A34.18,34.18,0,0,1,61,10.36,36.59,36.59,0,0,1,75.27,2.07,41,41,0,0,1,83,.42C83.91.32,85.7.19,85.7.19s.74,0,1.48-.08h1.63a9.43,9.43,0,0,1,1.48.08,43,43,0,0,1,20,6.14c-.11.24-.23.47-.32.71a4.94,4.94,0,0,0-.34,1.78v4.39c0,.33,0,.34-.25.34Z" transform="translate(-0.27 -0.11)" fill="#473a34"></path>
  <path d="M118.92,41.43a50.75,50.75,0,0,1,1.69,6.66,67.33,67.33,0,0,1,1.11,13.82c0,2.74-.23,5.48-.52,8.2A123.65,123.65,0,0,1,118,87.59c-.32,1.26-.67,2.51-1,3.77,0,.09-.07.18-.1.26-.06-.07-.13-.14-.18-.21a48.7,48.7,0,0,0-4.89-5.83c-1.73-1.79-3.54-3.5-5.33-5.22a63.38,63.38,0,0,1-4.88-5.09A23.31,23.31,0,0,1,98.63,71a14.06,14.06,0,0,1-1.36-9.25,23.29,23.29,0,0,1,1.85-5.5.78.78,0,0,1,.39-.39,6.06,6.06,0,0,0,1.37-.94,3.37,3.37,0,0,0,1-3.23,14.86,14.86,0,0,0-.64-2.35c-.5-1.46-1.08-2.9-1.52-4.39a6.29,6.29,0,0,0-1-1.92,15.64,15.64,0,0,0-2.35-2.53,50.42,50.42,0,0,0-6.25-4.62,2.11,2.11,0,0,0-1.39-.33,10.52,10.52,0,0,0-1.57.27,34.65,34.65,0,0,0-5.4,1.91.93.93,0,0,1-.73,0c-2.71-1-5.41-2-8.13-2.91a1,1,0,0,0-1.09.2,7.29,7.29,0,0,0-1.52,1.85,17.9,17.9,0,0,0-2.18,5.54,8,8,0,0,0-.07,3.6,3.85,3.85,0,0,0,2.16,3,1.2,1.2,0,0,1,.87,1.25.53.53,0,0,0,0,.12c0,.12,0,.31.12.36s.24-.14.35-.23.4-.44.71-.59A19.32,19.32,0,0,0,73.07,53c.4-.87.73-1.67,1.16-2.42a1.36,1.36,0,0,1,.3.45l1.34,2.38a6,6,0,0,1,.56,1.27,7.54,7.54,0,0,1,0,3.86A21.42,21.42,0,0,1,74.84,63a43.86,43.86,0,0,1-2.69,4.65,23.55,23.55,0,0,0-3.63,11.65,35.81,35.81,0,0,0,.3,6.46,56.55,56.55,0,0,0,1.45,7.17c1.11,4.15,2.48,8.21,4,12.24a4.24,4.24,0,0,1,.34,1.82,4,4,0,0,0,0,.49c.08,1.37.06,2.74.07,4.12-.76-.15-1.51-.34-2.26-.53-2.71-.69-5.39-1.53-8.09-2.27-1.3-.36-2.6-.73-3.93-1a4.44,4.44,0,0,1,.12-1.09,25.68,25.68,0,0,1,1.28-4.45A50.43,50.43,0,0,0,64,94.69a29.27,29.27,0,0,0,.63-5.45,25.11,25.11,0,0,0-.17-3.57,20.52,20.52,0,0,0-.7-3.47,28.61,28.61,0,0,0-1.61-3.78,31.66,31.66,0,0,1-1.38-3,6.89,6.89,0,0,1-.56-3.61,3.86,3.86,0,0,1,1.23-2.46c.27-.23.55-.44.83-.65a22.46,22.46,0,0,0,1.92-1.45A2.11,2.11,0,0,0,65,65.84a5.86,5.86,0,0,0-.3-2.28,1.57,1.57,0,0,1,0-.86c.19-.92-.07-1.33-.78-1.61l-.37-.15a16.85,16.85,0,0,0-1.84-.54.48.48,0,0,1-.4-.34,6.87,6.87,0,0,0-.91-1.63A2.44,2.44,0,0,0,59,57.52c-.61-.14-1.22-.29-1.83-.42l-4.39-.88a.33.33,0,0,1-.32-.33c-.12-.82-.26-1.63-.39-2.45-.06-.39-.13-.78-.19-1.17a15.86,15.86,0,0,0-1.52,3.22l-1.39-1.8c-.44-.57-.85-1.16-1.34-1.73a2.38,2.38,0,0,0-.21.64,33.26,33.26,0,0,1-1.58,5A20.21,20.21,0,0,0,44.22,65c0,1.08,0,2.17.06,3.25.09,1.41.27,2.81.45,4.21a15.59,15.59,0,0,1,.13,4,6.53,6.53,0,0,1-.42,1.73,5.52,5.52,0,0,1-2,2.43A23,23,0,0,1,40,82.13,25.1,25.1,0,0,0,32.76,88a25.71,25.71,0,0,0-4.85,9.15,34.48,34.48,0,0,0-1.1,5.21,32.9,32.9,0,0,1-4-4.3A42.31,42.31,0,0,1,15,81.84a39.11,39.11,0,0,1-1.13-11.55,29.9,29.9,0,0,1,5-15.62A28.86,28.86,0,0,1,32,44.14a29.22,29.22,0,0,1,8.39-2.06A30,30,0,0,1,59.82,46.9,32.91,32.91,0,0,1,63,49.24a1.54,1.54,0,0,0,.44.33c-.11-.59-.22-1.16-.33-1.72a39.18,39.18,0,0,1-.7-9,28.17,28.17,0,0,1,2.72-11.37A23.35,23.35,0,0,1,81,14.61a25,25,0,0,1,7.8-.69,28.45,28.45,0,0,1,11.16,3l.29.14a9.5,9.5,0,0,0-.11,2v7.82c0,.2,0,.41,0,.61a4.37,4.37,0,0,0,1.27,2.92,4.69,4.69,0,0,0,3.42,1.45H109c.69,0,.59-.1.59.61,0,.53,0,1.06,0,1.59v2.28a7.26,7.26,0,0,0,.06.93,4.71,4.71,0,0,0,3.68,4,7.69,7.69,0,0,0,1.66.12C116.31,41.43,117.61,41.42,118.92,41.43Z" transform="translate(-0.27 -0.11)" fill="#463933"></path>
  <path d="M26.81,102.33a34.48,34.48,0,0,1,1.1-5.21A25.71,25.71,0,0,1,32.76,88,25.1,25.1,0,0,1,40,82.13a23,23,0,0,0,2.51-1.53,5.52,5.52,0,0,0,2-2.43,6.53,6.53,0,0,0,.42-1.73,15.59,15.59,0,0,0-.13-4c-.18-1.4-.36-2.8-.45-4.21-.07-1.08-.09-2.17-.06-3.25a20.21,20.21,0,0,1,1.59-7.44,33.26,33.26,0,0,0,1.58-5A2.38,2.38,0,0,1,47.6,52c.49.57.9,1.16,1.34,1.73l1.39,1.8a15.86,15.86,0,0,1,1.52-3.22c.06.39.13.78.19,1.17.13.82.27,1.63.39,2.45a.33.33,0,0,0,.32.33l4.39.88c.61.13,1.22.28,1.83.42a2.44,2.44,0,0,1,1.36.91,6.87,6.87,0,0,1,.91,1.63.48.48,0,0,0,.4.34,16.85,16.85,0,0,1,1.84.54l.37.15c.71.28,1,.69.78,1.61a1.57,1.57,0,0,0,0,.86,5.86,5.86,0,0,1,.3,2.28,2.11,2.11,0,0,1-.79,1.46,22.46,22.46,0,0,1-1.92,1.45c-.28.21-.56.42-.83.65a3.86,3.86,0,0,0-1.23,2.46,6.89,6.89,0,0,0,.56,3.61,31.66,31.66,0,0,0,1.38,3,28.61,28.61,0,0,1,1.61,3.78,20.52,20.52,0,0,1,.7,3.47,25.11,25.11,0,0,1,.17,3.57A29.27,29.27,0,0,1,64,94.69a50.43,50.43,0,0,1-2.22,7.53,25.68,25.68,0,0,0-1.28,4.45,4.44,4.44,0,0,0-.12,1.09,1.21,1.21,0,0,0-.08.56,25.75,25.75,0,0,0,.18,4.3,13.07,13.07,0,0,1-1.52-.27c-1.38-.25-2.77-.48-4.17-.64A30.67,30.67,0,0,0,50,111.5a22.4,22.4,0,0,0-2.71.27c-1,.17-2.06.3-3.1.44s-2.09.26-3.14.39c-.34,0-.68.07-1,.08-1,0-1.92.14-2.89.1l-1.22-.08c-.15,0-.27-.12-.42-.14q-4.41-2-8.65-4.34a.47.47,0,0,1-.26-.41,22.38,22.38,0,0,1,.07-3.66C26.69,103.54,26.76,102.94,26.81,102.33Z" transform="translate(-0.27 -0.11)" fill="#fff"></path>
  <path d="M118.92,41.43c-1.31,0-2.61,0-3.91,0a7.69,7.69,0,0,1-1.66-.12,4.71,4.71,0,0,1-3.68-4,7.26,7.26,0,0,1-.06-.93V34.1c0-.53,0-1.06,0-1.59,0-.71.1-.61-.59-.61h-4.2a4.69,4.69,0,0,1-3.42-1.45,4.37,4.37,0,0,1-1.27-2.92c0-.2,0-.41,0-.61V19.09a9.5,9.5,0,0,1,.11-2c.08-.06.08-.17.11-.25a4.71,4.71,0,0,1,4.55-3.29l.73,0h3.74c.25,0,.25,0,.25-.34V8.82A4.94,4.94,0,0,1,110,7c.09-.24.21-.47.32-.71a1,1,0,0,0,.22-.28,4.63,4.63,0,0,1,3.86-2q4.47,0,9,0A4.72,4.72,0,0,1,128,8.79V13c0,.61-.08.53.51.53h4.31a4.73,4.73,0,0,1,4.58,3.69,3.68,3.68,0,0,1,.06.57c0,.2,0,.4,0,.61v8.9c0,.11,0,.22,0,.32a4.4,4.4,0,0,1-2.78,3.84,4.62,4.62,0,0,1-1.94.4l-2,0-2.53,0c-.18,0-.28.06-.26.26a2.62,2.62,0,0,1,0,.28v4.33a4.28,4.28,0,0,1-.31,1.62,4.75,4.75,0,0,1-3.11,2.85,6.61,6.61,0,0,1-1.72.16h-3.53A.93.93,0,0,0,118.92,41.43Zm-.09-34.15h-4.36a2,2,0,0,0-.48,0,1.54,1.54,0,0,0-1.13,1.52v7.7a.19.19,0,0,1-.22.22h-7.58a1.59,1.59,0,0,0-1.28.52,1.71,1.71,0,0,0-.37,1.13c0,2.88,0,5.76,0,8.64a1.54,1.54,0,0,0,1.6,1.61c2.44,0,4.89,0,7.33,0h.33a.18.18,0,0,1,.2.2v7.82a1.42,1.42,0,0,0,.73,1.28,1.91,1.91,0,0,0,1,.23h8.76a1.48,1.48,0,0,0,1.42-1.42c0-.31,0-.62,0-.93,0-2.16,0-4.32,0-6.48,0-.8-.11-.69.69-.69h7.21a1.47,1.47,0,0,0,1.58-1.57V23.57c0-1.75,0-3.5,0-5.25a1.51,1.51,0,0,0-.44-1.1,1.78,1.78,0,0,0-1.35-.46h-7.46c-.18,0-.24-.08-.23-.25V9.38c0-.25,0-.49,0-.73a1.6,1.6,0,0,0-1.56-1.38C121.77,7.31,120.3,7.28,118.83,7.28Z" transform="translate(-0.27 -0.11)" fill="#fff"></path>
  <path d="M98.14,126.06l-2.76.39c-.66.08-1.32.14-2,.19-1.36.09-2.72.16-4.09.24a.61.61,0,0,0-.24-.21,3.06,3.06,0,0,1-1.42-2.51,22.22,22.22,0,0,1,.3-4.54c.29-2,.62-4,.91-6a7.59,7.59,0,0,0,.12-1.78.92.92,0,0,0,0-.52,2.3,2.3,0,0,1,.1-1c.57-1.71,1.19-3.41,1.68-5.15a17.06,17.06,0,0,0,.72-6.35,3.54,3.54,0,0,0-.18-1,.77.77,0,0,0,0,.19,19,19,0,0,1-.47,3.1,35,35,0,0,1-2.9,8.06,10.16,10.16,0,0,0-.87,3,1.06,1.06,0,0,0-.06.19c-.27,1.3-.53,2.6-.79,3.9-.11-.41-.12-.42-.54-.33a23.53,23.53,0,0,1-5.74.41,34.89,34.89,0,0,1-4.56-.47,4.37,4.37,0,0,1-.63-.11c0-1.35,0-2.71,0-4.06a1.25,1.25,0,0,0,0-.19c0-1.38,0-2.75-.07-4.12a4,4,0,0,1,0-.49,4.24,4.24,0,0,0-.34-1.82c-1.47-4-2.84-8.09-4-12.24a56.55,56.55,0,0,1-1.45-7.17,35.81,35.81,0,0,1-.3-6.46A23.55,23.55,0,0,1,72.15,67.6,43.86,43.86,0,0,0,74.84,63a21.42,21.42,0,0,0,1.62-4.39,7.54,7.54,0,0,0,0-3.86,6,6,0,0,0-.56-1.27l-1.34-2.38a1.36,1.36,0,0,0-.3-.45c-.43.75-.76,1.55-1.16,2.42a19.32,19.32,0,0,1-.72-3.11c-.31.15-.47.42-.71.59s-.19.28-.35.23-.07-.24-.12-.36a.53.53,0,0,1,0-.12A1.2,1.2,0,0,0,70.27,49a3.85,3.85,0,0,1-2.16-3,8,8,0,0,1,.07-3.6,17.9,17.9,0,0,1,2.18-5.54A7.29,7.29,0,0,1,71.88,35,1,1,0,0,1,73,34.8c2.72.93,5.42,1.93,8.13,2.91a.93.93,0,0,0,.73,0,34.65,34.65,0,0,1,5.4-1.91,10.52,10.52,0,0,1,1.57-.27,2.11,2.11,0,0,1,1.39.33,50.42,50.42,0,0,1,6.25,4.62A15.64,15.64,0,0,1,98.79,43a6.29,6.29,0,0,1,1,1.92c.44,1.49,1,2.93,1.52,4.39a14.86,14.86,0,0,1,.64,2.35,3.37,3.37,0,0,1-1,3.23,6.06,6.06,0,0,1-1.37.94.78.78,0,0,0-.39.39,23.29,23.29,0,0,0-1.85,5.5A14.06,14.06,0,0,0,98.63,71a23.31,23.31,0,0,0,2.93,4.3,63.38,63.38,0,0,0,4.88,5.09c1.79,1.72,3.6,3.43,5.33,5.22a48.7,48.7,0,0,1,4.89,5.83c0,.07.12.14.18.21a1.24,1.24,0,0,0,.22.39,33.2,33.2,0,0,1,2,3.24.43.43,0,0,1,0,.45,53.14,53.14,0,0,0-2.84,7c-1.2,3.4-2.27,6.85-3.51,10.23a53.65,53.65,0,0,1-3,7.11,17.8,17.8,0,0,1-1.48,2.38,6,6,0,0,1-2.67,2.12,1.89,1.89,0,0,1-.4.08,11,11,0,0,0-3.07.51l-.55.15M99.14,55.92a.78.78,0,0,0-.37-.21,2.81,2.81,0,0,0-1.38,0,11.93,11.93,0,0,0-3,1.12c-1.28.64-2.54,1.3-3.81,2a8,8,0,0,1-1.39.58A1.7,1.7,0,0,1,87.52,59a3,3,0,0,1-.88-1.2,3.59,3.59,0,0,1,.13-3.44,10.53,10.53,0,0,1,.66-.94,23.22,23.22,0,0,1,2.45-2.61c.77-.74,1.58-1.45,2.28-2.27a5.83,5.83,0,0,0,1.42-2.57,1.15,1.15,0,0,0,0-.56c-.24.29-.44.54-.66.78A44.54,44.54,0,0,1,88.86,50,21.7,21.7,0,0,0,86,52.82a5.75,5.75,0,0,0-1.39,4.46,3.84,3.84,0,0,0,2.91,3.34A4.78,4.78,0,0,0,90,60.5a8.78,8.78,0,0,0,2.15-1.06c1-.66,2-1.36,3.07-2A8.31,8.31,0,0,1,99.14,55.92Z" transform="translate(-0.27 -0.11)" fill="#fff"></path>
  <path d="M85.56,119.06a8.36,8.36,0,0,1-.29,1.72c-.36,1.87-.74,3.73-1.11,5.59a1.09,1.09,0,0,1-.08.31.18.18,0,0,1-.22.12l-2.58-.49-2.83-.56c-.26-.06-.26-.06-.18-.32,0-.05,0-.1,0-.16s0-.1.07-.22a2.63,2.63,0,0,0-.63.4.47.47,0,0,1-.45.12c-2.53-.53-5.07-1-7.59-1.64l-.15-.07a2,2,0,0,1,.78-.64,4.94,4.94,0,0,1,1.56-.42,5,5,0,0,0,1.16-.17c1,0,1.89.17,2.84.19s1.95.05,2.92,0a10.13,10.13,0,0,0,4.11-1,5.51,5.51,0,0,0,2.4-2.4C85.39,119.26,85.4,119.11,85.56,119.06Z" transform="translate(-0.27 -0.11)" fill="#fff"></path>
  <path d="M85.66,118.81c0,.09,0,.21-.11.26C85.54,119,85.54,118.86,85.66,118.81Z" transform="translate(-0.27 -0.11)" fill="red"></path>
  <path d="M124.61,41.23a4.75,4.75,0,0,0,3.11-2.85,4.28,4.28,0,0,0,.31-1.62V32.43a2.62,2.62,0,0,0,0-.28c0-.2.08-.26.26-.26l2.53,0a55.07,55.07,0,0,1,2.7,8.14A69.74,69.74,0,0,1,135,47.89a75.63,75.63,0,0,1,.54,11.75c-.08,2.68-.29,5.34-.61,8a107.7,107.7,0,0,1-10.7,35.07,99.14,99.14,0,0,1-12.63,19.51q-.28.36-.6.72c-.06.07-.1.17-.24.14s.08-.3.15-.45c2-4.58,4-9.19,5.76-13.86a193.42,193.42,0,0,0,6.62-20.18c1.06-4,1.95-8.07,2.63-12.17q.58-3.56.93-7.15a85.85,85.85,0,0,0,.37-12A65,65,0,0,0,124.61,41.23Z" transform="translate(-0.27 -0.11)" fill="#473a34"></path>
  <path d="M118.83,7.28c1.47,0,2.94,0,4.4,0a1.6,1.6,0,0,1,1.56,1.38c0,.24,0,.48,0,.73v7.13c0,.17,0,.26.23.25h7.46a1.78,1.78,0,0,1,1.35.46,1.51,1.51,0,0,1,.44,1.1c0,1.75,0,3.5,0,5.25v3.51a1.47,1.47,0,0,1-1.58,1.57h-7.21c-.8,0-.69-.11-.69.69,0,2.16,0,4.32,0,6.48,0,.31,0,.62,0,.93a1.48,1.48,0,0,1-1.42,1.42h-8.76a1.91,1.91,0,0,1-1-.23,1.42,1.42,0,0,1-.73-1.28V28.85a.18.18,0,0,0-.2-.2h-.33c-2.44,0-4.89,0-7.33,0a1.54,1.54,0,0,1-1.6-1.61c0-2.88,0-5.76,0-8.64a1.71,1.71,0,0,1,.37-1.13,1.59,1.59,0,0,1,1.28-.52h7.58a.19.19,0,0,0,.22-.22V8.84A1.54,1.54,0,0,1,114,7.32a2,2,0,0,1,.48,0Z" transform="translate(-0.27 -0.11)" fill="#ec9243"></path>
  <path d="M99.14,55.92a8.31,8.31,0,0,0-3.94,1.52c-1,.64-2,1.34-3.07,2A8.78,8.78,0,0,1,90,60.5a4.78,4.78,0,0,1-2.49.12,3.84,3.84,0,0,1-2.91-3.34A5.75,5.75,0,0,1,86,52.82,21.7,21.7,0,0,1,88.86,50a44.54,44.54,0,0,0,4.08-3.81c.22-.24.42-.49.66-.78a1.15,1.15,0,0,1,0,.56,5.83,5.83,0,0,1-1.42,2.57c-.7.82-1.51,1.53-2.28,2.27a23.22,23.22,0,0,0-2.45,2.61,10.53,10.53,0,0,0-.66.94,3.59,3.59,0,0,0-.13,3.44,3,3,0,0,0,.88,1.2,1.7,1.7,0,0,0,1.67.37,8,8,0,0,0,1.39-.58c1.27-.65,2.53-1.31,3.81-2a11.93,11.93,0,0,1,3-1.12,2.81,2.81,0,0,1,1.38,0A.78.78,0,0,1,99.14,55.92Z" transform="translate(-0.27 -0.11)" fill="#463933"></path>
  <path d="M89,111.89c-.64.12-1.29.26-2,.32a10.16,10.16,0,0,1,.87-3,35,35,0,0,0,2.9-8.06,19,19,0,0,0,.47-3.1.77.77,0,0,1,0-.19,3.54,3.54,0,0,1,.18,1,17.06,17.06,0,0,1-.72,6.35c-.49,1.74-1.11,3.44-1.68,5.15a2.3,2.3,0,0,0-.1,1A.92.92,0,0,1,89,111.89Z" transform="translate(-0.27 -0.11)" fill="#473a34"></path>
</svg>
